<svg width="100" height="60" viewBox="0 0 87 44" fill="none" xmlns="http://www.w3.org/2000/svg">
<path d="M29.5317 24.0374C29.5317 27.9835 28.1605 33.204 25.4104 36.4571C24.0447 38.0727 22.3621 39.1778 20.3571 39.4399C18.3511 39.702 15.9405 39.1312 13.0988 37.2328L12.9023 37.1015C10.0823 35.2177 7.877 33.7444 6.15534 32.4897C4.39183 31.2044 3.16448 30.1685 2.31741 29.1807C1.48031 28.2045 1.01531 27.276 0.781432 26.1951C0.544049 25.098 0.53912 23.82 0.664801 22.1301C1.15708 15.511 6.27925 8.50733 14.3197 8.4958C20.29 8.97727 24.0651 10.9334 26.3575 13.6812C28.6596 16.4407 29.5317 20.0762 29.5317 24.0374Z" stroke="#ff4f03"/>
<path d="M29.9486 17.8473C29.9486 25.9015 24.3805 39.2362 12.738 31.4584C1.09546 23.6807 -0.423032 22.7084 0.0831135 15.9029C0.589259 9.09735 5.86962 1.80569 14.2565 1.80569C26.4052 2.77792 29.9486 9.79319 29.9486 17.8473Z" fill="#ff4f03"/>
<path d="M24.16 17.408C25.104 17.584 25.88 18.056 26.488 18.824C27.096 19.592 27.4 20.472 27.4 21.464C27.4 22.36 27.176 23.152 26.728 23.84C26.296 24.512 25.664 25.04 24.832 25.424C24 25.808 23.016 26 21.88 26H14.656V9.248H21.568C22.704 9.248 23.68 9.432 24.496 9.8C25.328 10.168 25.952 10.68 26.368 11.336C26.8 11.992 27.016 12.736 27.016 13.568C27.016 14.544 26.752 15.36 26.224 16.016C25.712 16.672 25.024 17.136 24.16 17.408ZM18.016 16.16H21.088C21.888 16.16 22.504 15.984 22.936 15.632C23.368 15.264 23.584 14.744 23.584 14.072C23.584 13.4 23.368 12.88 22.936 12.512C22.504 12.144 21.888 11.96 21.088 11.96H18.016V16.16ZM21.4 23.264C22.216 23.264 22.848 23.072 23.296 22.688C23.76 22.304 23.992 21.76 23.992 21.056C23.992 20.336 23.752 19.776 23.272 19.376C22.792 18.96 22.144 18.752 21.328 18.752H18.016V23.264H21.4Z" fill="white"/>
<path d="M33.7019 11.12C33.1099 11.12 32.6139 10.936 32.2139 10.568C31.8299 10.184 31.6379 9.712 31.6379 9.152C31.6379 8.592 31.8299 8.128 32.2139 7.76C32.6139 7.376 33.1099 7.184 33.7019 7.184C34.2939 7.184 34.7819 7.376 35.1659 7.76C35.5659 8.128 35.7659 8.592 35.7659 9.152C35.7659 9.712 35.5659 10.184 35.1659 10.568C34.7819 10.936 34.2939 11.12 33.7019 11.12ZM35.3579 12.704V26H31.9979V12.704H35.3579ZM44.5096 15.464V21.896C44.5096 22.344 44.6136 22.672 44.8216 22.88C45.0456 23.072 45.4136 23.168 45.9256 23.168H47.4856V26H45.3736C42.5416 26 41.1256 24.624 41.1256 21.872V15.464H39.5416V12.704H41.1256V9.416H44.5096V12.704H47.4856V15.464H44.5096ZM64.1822 19.064C64.1822 19.544 64.1502 19.976 64.0862 20.36H54.3662C54.4462 21.32 54.7822 22.072 55.3742 22.616C55.9662 23.16 56.6942 23.432 57.5582 23.432C58.8062 23.432 59.6942 22.896 60.2222 21.824H63.8462C63.4622 23.104 62.7262 24.16 61.6382 24.992C60.5502 25.808 59.2142 26.216 57.6302 26.216C56.3502 26.216 55.1982 25.936 54.1742 25.376C53.1662 24.8 52.3742 23.992 51.7982 22.952C51.2382 21.912 50.9582 20.712 50.9582 19.352C50.9582 17.976 51.2382 16.768 51.7982 15.728C52.3582 14.688 53.1422 13.888 54.1502 13.328C55.1582 12.768 56.3182 12.488 57.6302 12.488C58.8942 12.488 60.0222 12.76 61.0142 13.304C62.0222 13.848 62.7982 14.624 63.3422 15.632C63.9022 16.624 64.1822 17.768 64.1822 19.064ZM60.7022 18.104C60.6862 17.24 60.3742 16.552 59.7662 16.04C59.1582 15.512 58.4142 15.248 57.5342 15.248C56.7022 15.248 55.9982 15.504 55.4222 16.016C54.8622 16.512 54.5182 17.208 54.3902 18.104H60.7022ZM73.6428 26.216C72.5548 26.216 71.5788 26.024 70.7148 25.64C69.8508 25.24 69.1628 24.704 68.6508 24.032C68.1548 23.36 67.8828 22.616 67.8348 21.8H71.2188C71.2828 22.312 71.5308 22.736 71.9628 23.072C72.4108 23.408 72.9628 23.576 73.6188 23.576C74.2588 23.576 74.7548 23.448 75.1068 23.192C75.4748 22.936 75.6588 22.608 75.6588 22.208C75.6588 21.776 75.4348 21.456 74.9868 21.248C74.5548 21.024 73.8588 20.784 72.8988 20.528C71.9068 20.288 71.0908 20.04 70.4508 19.784C69.8268 19.528 69.2828 19.136 68.8188 18.608C68.3708 18.08 68.1468 17.368 68.1468 16.472C68.1468 15.736 68.3548 15.064 68.7708 14.456C69.2028 13.848 69.8108 13.368 70.5948 13.016C71.3948 12.664 72.3308 12.488 73.4028 12.488C74.9868 12.488 76.2508 12.888 77.1948 13.688C78.1388 14.472 78.6588 15.536 78.7548 16.88H75.5388C75.4908 16.352 75.2668 15.936 74.8668 15.632C74.4828 15.312 73.9628 15.152 73.3068 15.152C72.6988 15.152 72.2268 15.264 71.8908 15.488C71.5708 15.712 71.4108 16.024 71.4108 16.424C71.4108 16.872 71.6348 17.216 72.0828 17.456C72.5308 17.68 73.2268 17.912 74.1708 18.152C75.1308 18.392 75.9228 18.64 76.5468 18.896C77.1708 19.152 77.7068 19.552 78.1548 20.096C78.6188 20.624 78.8588 21.328 78.8748 22.208C78.8748 22.976 78.6588 23.664 78.2268 24.272C77.8108 24.88 77.2028 25.36 76.4028 25.712C75.6188 26.048 74.6988 26.216 73.6428 26.216Z" fill="#ff4f03"/>
</svg>
