<svg width="20" height="20" viewBox="0 0 20 20" fill="none" xmlns="http://www.w3.org/2000/svg">
<path d="M18.3375 11.7703L19.9789 3.64527C20.0974 3.05863 19.7011 2.5 19.1663 2.5H5.52806L5.20979 0.749609C5.13049 0.31332 4.78924 0 4.39337 0H0.833334C0.37309 0 0 0.419727 0 0.9375V1.5625C0 2.08027 0.37309 2.5 0.833334 2.5H3.25983L5.69899 15.9154C5.11545 16.293 4.72222 17.0009 4.72222 17.8125C4.72222 19.0206 5.59278 20 6.66667 20C7.74056 20 8.61111 19.0206 8.61111 17.8125C8.61111 17.2002 8.38726 16.6471 8.02695 16.25H15.3064C14.9461 16.6471 14.7222 17.2002 14.7222 17.8125C14.7222 19.0206 15.5928 20 16.6667 20C17.7406 20 18.6111 19.0206 18.6111 17.8125C18.6111 16.9464 18.1636 16.198 17.5146 15.8436L17.7062 14.8953C17.8247 14.3086 17.4283 13.75 16.8936 13.75H7.57351L7.34625 12.5H17.5249C17.914 12.5 18.2513 12.1971 18.3375 11.7703Z" fill="white"/>
</svg>
