<svg width="18" height="18" viewBox="0 0 6 6" fill="none" xmlns="http://www.w3.org/2000/svg">
<path d="M2.52447 0.463526C2.67415 0.00287104 3.32585 0.00286984 3.47553 0.463525L3.83202 1.56068C3.89895 1.76669 4.09093 1.90617 4.30754 1.90617H5.46116C5.94552 1.90617 6.14691 2.52598 5.75505 2.81068L4.82176 3.48876C4.64651 3.61608 4.57318 3.84176 4.64012 4.04777L4.99661 5.14493C5.14628 5.60558 4.61904 5.98865 4.22719 5.70394L3.29389 5.02587C3.11865 4.89854 2.88135 4.89854 2.70611 5.02587L1.77281 5.70394C1.38096 5.98864 0.853716 5.60558 1.00339 5.14493L1.35988 4.04777C1.42682 3.84176 1.35349 3.61608 1.17824 3.48876L0.24495 2.81068C-0.146907 2.52598 0.0544798 1.90617 0.538841 1.90617H1.69246C1.90907 1.90617 2.10105 1.76669 2.16799 1.56068L2.52447 0.463526Z" fill="#FFCC47"/>
</svg>
